# xmcd
#
# Track frame offsets: 
#        150
#        19815
#        34542
#        43992
#        66660
#        77307
#        108259
#        119772
#        130522
#        142439
#        162799
#        188802
#
# Disc length: 2782 seconds
#
# Revision: 0
# Processed by: cddbd v1.5.2PL0 Copyright (c) Steve Scherf et al.
# Submitted via: ExactAudioCopy v1.0b3
#
DISCID=a80adc0c
DTITLE=Kalle Sändare - Boxen e' klar - CD 20 - Idag är det sol!
DYEAR=2014
DGENRE=Comedy
TTITLE0=Helge Bältes orkester
TTITLE1=Saab-flotten
TTITLE2=Värdshuset Mannaminne
TTITLE3=Moster Kråkas pannmur
TTITLE4=Musik för köket
TTITLE5=Vi spinner spann
TTITLE6=Gårdsmuseet
TTITLE7=Bowling
TTITLE8=Goyna voita
TTITLE9=Ford escort
TTITLE10=Kepsföreningen I-III
TTITLE11=Blåsinstrument köpes
EXTD=
EXTT0=
EXTT1=
EXTT2=
EXTT3=
EXTT4=
EXTT5=
EXTT6=
EXTT7=
EXTT8=
EXTT9=
EXTT10=
EXTT11=
PLAYORDER=
